<?xml version="1.0" encoding="UTF-8" standalone="no" ?>
<!DOCTYPE svg PUBLIC "-//W3C//DTD SVG 1.1//EN" "http://www.w3.org/Graphics/SVG/1.1/DTD/svg11.dtd">
<svg xmlns="http://www.w3.org/2000/svg" xmlns:xlink="http://www.w3.org/1999/xlink" version="1.1" width="218" height="400" viewBox="0 0 218 400" xml:space="preserve">
<desc>Created with Fabric.js 3.6.6</desc>
<defs>
</defs>
<g transform="matrix(2.33 0 0 4.43 110.61 201.65)"  >
<polygon style="stroke: rgb(128,128,128); stroke-width: 8; stroke-dasharray: none; stroke-linecap: butt; stroke-dashoffset: 0; stroke-linejoin: miter; stroke-miterlimit: 4; fill: rgb(128,128,128); fill-rule: nonzero; opacity: 1;" vector-effect="non-scaling-stroke"  points="-50,-50 -50,50 50,50 50,-50 " />
</g>
<g transform="matrix(0.95 0 0 0.95 109.14 200.11)"  >
<g style=""   >
		<g transform="matrix(1 0 0 1 -0.5 0.09)" id="surface1"  >
<path style="stroke: rgb(0,0,0); stroke-width: 1; stroke-dasharray: none; stroke-linecap: butt; stroke-dashoffset: 0; stroke-linejoin: miter; stroke-miterlimit: 4; fill: rgb(255,0,0); fill-rule: nonzero; opacity: 1;"  transform=" translate(-108.5, -69.09)" d="M 93.835938 0.167969 C 82.882812 0.457031 72.863281 0.898438 62.996094 1.527344 L 57.742188 1.867188 L 56.894531 2.582031 C 51.453125 7.113281 46.535156 12.019531 42.992188 16.46875 C 39.804688 20.476562 37.976562 23.292969 34.277344 29.964844 C 32.921875 32.394531 31.804688 34.414062 31.769531 34.449219 C 31.734375 34.484375 31.515625 34.449219 31.277344 34.398438 C 30.550781 34.210938 30.347656 33.429688 30.347656 30.917969 C 30.347656 28.4375 30.210938 27.929688 29.429688 27.691406 C 27.394531 27.03125 22.902344 27.011719 20.496094 27.65625 C 17.835938 28.355469 15.867188 29.40625 15.308594 30.441406 C 14.867188 31.238281 14.867188 34.464844 15.308594 35.332031 C 16.359375 37.453125 19.191406 38.710938 22.9375 38.710938 C 24.464844 38.710938 24.546875 38.695312 24.648438 38.320312 C 24.9375 37.183594 26.667969 35.941406 28.226562 35.757812 L 29.074219 35.65625 L 27.921875 36.0625 C 27.277344 36.300781 26.597656 36.621094 26.414062 36.792969 C 25.972656 37.183594 25.597656 37.914062 25.597656 38.371094 C 25.597656 38.675781 25.699219 38.710938 26.871094 38.710938 C 28.089844 38.710938 29.804688 38.964844 30.039062 39.203125 C 30.109375 39.253906 29.617188 39.917969 28.972656 40.664062 C 26.871094 43.058594 24.972656 45.398438 24.089844 46.691406 C 23.15625 48.03125 22.9375 47.894531 23.632812 46.4375 C 24.039062 45.570312 25.785156 43.125 26.429688 42.546875 C 26.632812 42.359375 26.785156 42.15625 26.785156 42.089844 C 26.785156 41.917969 26.023438 42.359375 23.597656 43.921875 C 18.15625 47.4375 13.410156 51.714844 6.359375 59.40625 L 3.492188 62.53125 L 2.679688 65.433594 C 1.136719 70.867188 0.238281 76.132812 0.0507812 80.917969 L -0.0507812 83.636719 L 0.949219 84.671875 C 1.882812 85.621094 2.933594 86.285156 4.40625 86.859375 C 5 87.097656 5 87.097656 4.019531 87.015625 C 2.78125 86.894531 1.476562 86.402344 0.628906 85.722656 L -0.0351562 85.179688 L 0.0664062 86.605469 C 0.136719 87.386719 0.441406 93.414062 0.761719 100.003906 C 1.085938 106.589844 1.375 112.3125 1.390625 112.71875 L 1.441406 113.484375 L 2.628906 113.839844 C 3.289062 114.042969 4.222656 114.417969 4.714844 114.671875 C 5.628906 115.148438 7.035156 116.285156 6.867188 116.4375 C 6.816406 116.488281 5.917969 116.082031 4.882812 115.554688 C 3.832031 115.011719 2.644531 114.535156 2.253906 114.484375 L 1.558594 114.398438 L 1.425781 115.722656 C 1.238281 117.558594 1.273438 121.972656 1.507812 124.027344 C 1.914062 127.675781 2.425781 130.851562 2.730469 131.734375 C 3.527344 134.027344 5.679688 136.523438 7.679688 137.523438 L 8.832031 138.085938 L 14.546875 137.984375 C 17.683594 137.914062 24.15625 137.8125 28.90625 137.761719 C 35.210938 137.675781 37.6875 137.59375 38.078125 137.441406 C 38.703125 137.183594 39.160156 136.300781 39.160156 135.367188 L 39.160156 134.6875 L 37.007812 134.671875 C 34.890625 134.671875 33.175781 134.417969 31.53125 133.875 L 30.769531 133.636719 L 32.125 133.703125 C 35.210938 133.890625 59.605469 133.976562 64 133.824219 C 67.929688 133.6875 69.117188 133.585938 70.949219 133.230469 C 73.355469 132.753906 76.222656 132.363281 79.511719 132.074219 C 82.492188 131.804688 134.523438 131.804688 137.488281 132.074219 C 140.777344 132.363281 143.644531 132.753906 146.050781 133.230469 C 147.882812 133.585938 149.070312 133.6875 153 133.824219 C 157.394531 133.976562 181.789062 133.890625 184.875 133.703125 L 186.230469 133.636719 L 185.46875 133.875 C 183.839844 134.417969 182.109375 134.671875 180.007812 134.6875 L 177.839844 134.707031 L 177.839844 135.367188 C 177.839844 136.300781 178.296875 137.183594 178.921875 137.441406 C 179.3125 137.59375 181.789062 137.675781 188.09375 137.761719 C 192.859375 137.8125 199.316406 137.914062 202.453125 137.984375 L 208.167969 138.085938 L 209.320312 137.523438 C 211.320312 136.523438 213.472656 134.027344 214.269531 131.734375 C 214.574219 130.851562 215.085938 127.675781 215.492188 124.027344 C 215.726562 121.972656 215.761719 117.558594 215.574219 115.722656 L 215.441406 114.398438 L 214.746094 114.484375 C 214.355469 114.535156 213.167969 115.011719 212.117188 115.554688 C 211.082031 116.082031 210.183594 116.488281 210.132812 116.4375 C 209.964844 116.285156 211.371094 115.148438 212.285156 114.671875 C 212.777344 114.417969 213.726562 114.042969 214.371094 113.839844 L 215.558594 113.484375 L 215.609375 112.71875 C 215.625 112.3125 215.914062 106.589844 216.238281 100.003906 C 216.558594 93.414062 216.863281 87.386719 216.933594 86.605469 L 217.035156 85.179688 L 216.371094 85.722656 C 215.523438 86.402344 214.21875 86.894531 212.980469 87.015625 C 212 87.097656 212 87.097656 212.59375 86.859375 C 214.066406 86.285156 215.117188 85.621094 216.050781 84.671875 L 217.050781 83.636719 L 216.949219 80.917969 C 216.761719 76.132812 215.863281 70.882812 214.320312 65.402344 L 213.507812 62.53125 L 209.488281 58.183594 C 203.808594 52.054688 200.214844 48.726562 195.792969 45.554688 C 192.503906 43.191406 189.144531 41.257812 190.570312 42.546875 C 191.214844 43.125 192.960938 45.570312 193.367188 46.4375 C 194.0625 47.894531 193.84375 48.03125 192.925781 46.707031 C 191.976562 45.332031 190.859375 43.941406 188.46875 41.171875 C 187.570312 40.136719 186.890625 39.253906 186.960938 39.203125 C 187.195312 38.964844 188.910156 38.710938 190.128906 38.710938 C 191.300781 38.710938 191.402344 38.675781 191.402344 38.371094 C 191.402344 37.914062 191.027344 37.183594 190.605469 36.792969 C 190.417969 36.640625 189.738281 36.316406 189.09375 36.078125 L 187.925781 35.65625 L 188.773438 35.757812 C 190.332031 35.941406 192.0625 37.183594 192.351562 38.320312 C 192.453125 38.695312 192.535156 38.710938 194.097656 38.710938 C 196.0625 38.710938 197.707031 38.371094 199.097656 37.707031 C 200.386719 37.097656 201.164062 36.351562 201.707031 35.179688 C 202.082031 34.363281 202.113281 34.09375 202.046875 32.632812 C 201.960938 30.679688 201.726562 30.121094 200.625 29.355469 C 198.757812 28.082031 196.113281 27.351562 192.824219 27.214844 C 189.453125 27.082031 187.214844 27.488281 186.839844 28.285156 C 186.738281 28.539062 186.652344 29.628906 186.652344 30.917969 C 186.652344 33.394531 186.433594 34.210938 185.6875 34.398438 C 185.46875 34.464844 185.246094 34.484375 185.230469 34.449219 C 185.195312 34.414062 184.382812 32.972656 183.433594 31.238281 C 178.820312 22.871094 176.769531 19.730469 172.769531 14.941406 C 170.007812 11.613281 164.410156 6.164062 160.105469 2.582031 L 159.257812 1.867188 L 155.867188 1.613281 C 149.253906 1.121094 140.542969 0.664062 131.554688 0.324219 C 125.300781 0.101562 100.617188 0 93.835938 0.167969 Z M 59.503906 2.511719 C 58.269531 3.363281 57.691406 3.886719 57.386719 4.449219 C 57.199219 4.789062 57.097656 5.109375 57.132812 5.144531 C 57.183594 5.195312 58.691406 5.09375 60.488281 4.921875 C 84.15625 2.648438 111.789062 1.933594 133.929688 3.054688 C 141.746094 3.445312 150.441406 4.144531 157.070312 4.90625 C 158.5625 5.078125 159.816406 5.179688 159.867188 5.144531 C 159.902344 5.109375 159.800781 4.789062 159.613281 4.449219 C 159.308594 3.90625 158.851562 3.464844 157.496094 2.496094 C 157.257812 2.324219 157.445312 2.378906 157.933594 2.613281 C 161.75 4.464844 168.277344 12.511719 175.972656 24.875 C 177.855469 27.894531 181.449219 34.144531 181.347656 34.226562 C 181.3125 34.261719 179.535156 34.175781 177.398438 34.042969 C 144.117188 31.9375 101.566406 31.445312 65.523438 32.769531 C 56.25 33.109375 44.28125 33.703125 38.160156 34.125 C 36.820312 34.226562 35.6875 34.277344 35.652344 34.246094 C 35.484375 34.074219 40.246094 26.027344 43.296875 21.308594 C 50.011719 10.949219 55.234375 4.71875 58.859375 2.714844 C 59.863281 2.15625 60.148438 2.070312 59.503906 2.511719 Z M 44.246094 56.285156 C 45.671875 59.542969 46.859375 62.257812 46.890625 62.292969 C 46.941406 62.34375 48.265625 62.429688 49.859375 62.496094 C 52.742188 62.632812 58.742188 63.089844 59.472656 63.261719 C 59.863281 63.347656 59.945312 63.601562 59.691406 63.992188 C 59.554688 64.195312 58.828125 64.160156 54.910156 63.769531 C 52.351562 63.53125 49.433594 63.261719 48.402344 63.195312 L 46.554688 63.074219 L 44.042969 56.792969 C 41.804688 51.191406 41.367188 50.019531 41.601562 50.273438 C 41.636719 50.308594 42.824219 53.007812 44.246094 56.285156 Z M 173.007812 56.65625 C 171.648438 60.085938 170.464844 62.957031 170.414062 63.007812 C 170.34375 63.074219 168.953125 63.210938 167.328125 63.3125 C 165.699219 63.429688 162.96875 63.667969 161.257812 63.839844 C 157.359375 64.261719 157.375 64.261719 157.242188 63.820312 C 157.171875 63.601562 157.207031 63.414062 157.308594 63.328125 C 157.578125 63.175781 163.851562 62.648438 167.277344 62.496094 C 168.800781 62.429688 170.058594 62.34375 170.109375 62.292969 C 170.140625 62.257812 171.34375 59.542969 172.769531 56.25 C 174.195312 52.957031 175.398438 50.308594 175.429688 50.339844 C 175.464844 50.375 174.378906 53.210938 173.007812 56.65625 Z M 25.9375 59.898438 C 31.683594 61.765625 35.3125 62.464844 41.535156 62.855469 L 44.859375 63.058594 L 50.300781 73.839844 C 56.199219 85.535156 56.792969 86.828125 59.234375 93.464844 C 60.132812 95.894531 61.300781 98.984375 61.828125 100.34375 C 65.132812 108.882812 68.457031 114.296875 73.425781 119.203125 L 75.40625 121.175781 L 77.152344 121.546875 C 82.679688 122.703125 87.835938 123.144531 98.75 123.382812 L 104.6875 123.515625 L 101.296875 123.652344 C 99.429688 123.722656 94.851562 123.753906 91.125 123.703125 C 83.933594 123.621094 81.375 123.433594 76.832031 122.667969 C 73.964844 122.175781 74.222656 122.347656 71.457031 119.136719 C 65.660156 112.414062 62.8125 107.097656 58.402344 94.738281 C 56.605469 89.730469 55.46875 86.859375 54.164062 84.09375 L 53.199219 82.039062 L 51.640625 81.9375 C 50.792969 81.886719 48.265625 81.769531 46.027344 81.664062 C 28.480469 80.886719 15.460938 79.289062 10.15625 77.234375 C 8.492188 76.589844 7.613281 75.945312 6.867188 74.839844 C 5.78125 73.175781 5.730469 70.96875 6.628906 64.3125 L 7 61.632812 L 9.816406 60.714844 C 15.714844 58.777344 16.800781 58.558594 20.003906 58.644531 L 22.292969 58.695312 Z M 200.488281 58.828125 C 202.21875 59.136719 203.269531 59.425781 207.183594 60.714844 L 210 61.632812 L 210.371094 64.3125 C 211.269531 70.933594 211.21875 73.195312 210.132812 74.839844 C 209.386719 75.945312 208.507812 76.589844 206.84375 77.234375 C 201.554688 79.273438 188.484375 80.886719 170.972656 81.664062 C 168.734375 81.769531 166.207031 81.886719 165.359375 81.9375 L 163.800781 82.039062 L 162.835938 84.09375 C 161.445312 87.046875 160.648438 89.050781 158.597656 94.722656 C 156.070312 101.71875 155.460938 103.226562 153.765625 106.707031 C 151.460938 111.429688 148.96875 115.199219 145.441406 119.273438 C 142.777344 122.347656 143.035156 122.175781 140.117188 122.667969 C 135.691406 123.414062 132.914062 123.621094 125.792969 123.703125 C 122.113281 123.753906 117.570312 123.722656 115.703125 123.652344 L 112.3125 123.515625 L 118.25 123.382812 C 129.113281 123.144531 134.351562 122.703125 139.847656 121.546875 L 141.59375 121.175781 L 143.574219 119.203125 C 148.527344 114.316406 151.898438 108.8125 155.171875 100.34375 C 155.699219 98.984375 156.902344 95.773438 157.851562 93.210938 C 160.257812 86.707031 160.734375 85.65625 166.785156 73.667969 L 172.140625 63.058594 L 175.464844 62.855469 C 181.585938 62.464844 185.332031 61.765625 190.773438 59.984375 C 192.621094 59.390625 194.453125 58.828125 194.84375 58.761719 C 196.027344 58.523438 198.894531 58.558594 200.488281 58.828125 Z M 87.140625 59.59375 C 91.851562 59.882812 101.191406 60.730469 103.023438 61.039062 C 103.464844 61.121094 103.71875 61.34375 104.261719 62.125 C 104.6875 62.769531 105.109375 63.195312 105.429688 63.296875 C 106.058594 63.515625 106.058594 63.480469 106.363281 67.488281 C 107.058594 76.316406 106.789062 81.089844 105.429688 84.042969 C 104.71875 85.585938 104.226562 86.164062 103.160156 86.675781 L 102.246094 87.132812 L 92.53125 87.21875 C 80.375 87.335938 76.324219 87.132812 72.8125 86.214844 C 66.710938 84.621094 62.710938 80.546875 61.199219 74.382812 C 60.300781 70.765625 60.402344 65.554688 61.421875 63.125 C 62.21875 61.207031 66.710938 59.832031 73.476562 59.425781 C 76.1875 59.253906 82.984375 59.355469 87.140625 59.59375 Z M 146.425781 59.679688 C 150.324219 60.136719 152.644531 60.765625 154.257812 61.800781 C 155.375 62.53125 155.714844 63.089844 156.054688 64.910156 C 157.375 72.003906 155.136719 79.390625 150.542969 83.074219 C 149.375 84.007812 148.121094 84.773438 146.863281 85.300781 C 142.710938 87.03125 138.964844 87.355469 124.46875 87.21875 L 114.753906 87.132812 L 113.789062 86.65625 C 112.144531 85.824219 111.230469 84.09375 110.585938 80.597656 C 110.195312 78.472656 110.210938 72.089844 110.601562 67.488281 C 110.753906 65.621094 110.925781 63.957031 110.976562 63.789062 C 111.027344 63.636719 111.3125 63.378906 111.636719 63.261719 C 111.992188 63.109375 112.367188 62.734375 112.636719 62.257812 C 112.890625 61.835938 113.195312 61.394531 113.332031 61.292969 C 113.875 60.832031 125.691406 59.765625 134.609375 59.355469 C 137.132812 59.238281 144.289062 59.441406 146.425781 59.679688 Z M 40.773438 107.386719 C 46.503906 107.710938 57.164062 108.476562 57.234375 108.542969 C 57.269531 108.578125 57.199219 108.730469 57.082031 108.898438 C 56.859375 109.1875 56.605469 109.1875 51.265625 108.761719 C 42.449219 108.066406 41.550781 108 35.769531 107.796875 C 29.90625 107.589844 24.53125 107.746094 20.5625 108.238281 C 19.460938 108.371094 18.53125 108.492188 18.496094 108.492188 C 18.460938 108.492188 18.734375 108.710938 19.089844 108.984375 C 20.480469 110.003906 21.125 111.125 21.292969 112.855469 C 21.648438 116.234375 18.816406 118.898438 14.9375 118.832031 L 13.648438 118.796875 L 14.816406 118.660156 C 16.324219 118.457031 17.257812 118.035156 18.292969 117.066406 C 20.445312 115.046875 20.445312 111.785156 18.292969 109.695312 C 17.886719 109.304688 17.375 108.949219 17.15625 108.882812 C 16.410156 108.695312 12.597656 109.902344 11.054688 110.816406 C 10.613281 111.054688 9.882812 111.617188 9.425781 112.039062 L 8.59375 112.820312 L 9.003906 112.089844 C 9.933594 110.394531 11.96875 108.933594 14.410156 108.1875 C 15.75 107.777344 18.257812 107.355469 20.597656 107.132812 C 23.023438 106.914062 35.382812 107.066406 40.773438 107.386719 Z M 196.097656 107.132812 C 198.757812 107.355469 201.132812 107.746094 202.589844 108.1875 C 205.066406 108.949219 207.097656 110.410156 207.996094 112.074219 L 208.40625 112.820312 L 207.660156 112.109375 C 207.25 111.71875 206.457031 111.125 205.894531 110.785156 C 204.828125 110.15625 201.726562 109.070312 200.46875 108.882812 C 199.757812 108.796875 199.691406 108.8125 198.808594 109.664062 C 196.539062 111.820312 196.488281 114.996094 198.707031 117.066406 C 199.742188 118.035156 200.675781 118.457031 202.183594 118.660156 L 203.351562 118.796875 L 202.046875 118.832031 C 197.386719 118.898438 194.417969 114.996094 196.164062 111.054688 C 196.554688 110.171875 196.976562 109.664062 197.910156 108.984375 C 198.265625 108.710938 198.539062 108.492188 198.503906 108.492188 C 198.46875 108.492188 197.539062 108.371094 196.4375 108.238281 C 192.46875 107.746094 187.09375 107.589844 181.230469 107.796875 C 175.449219 108 174.550781 108.066406 165.75 108.761719 C 160.359375 109.1875 160.171875 109.1875 159.953125 108.882812 C 159.835938 108.710938 159.75 108.558594 159.765625 108.527344 C 159.902344 108.390625 176.53125 107.335938 182.671875 107.082031 C 185.839844 106.945312 194.164062 106.980469 196.097656 107.132812 Z M 76.289062 110.191406 C 90.597656 111.191406 98.496094 111.445312 112.941406 111.328125 C 119.402344 111.277344 126.097656 111.15625 127.828125 111.054688 C 133.539062 110.734375 139.152344 110.324219 142.289062 110.035156 C 143.984375 109.867188 145.390625 109.746094 145.425781 109.78125 C 145.527344 109.851562 143.710938 112.992188 142.863281 114.230469 C 141.132812 116.742188 139.386719 118.289062 137.761719 118.761719 C 135.507812 119.425781 130.03125 120.019531 122.65625 120.410156 C 117.398438 120.683594 98.53125 120.683594 93.328125 120.410156 C 84.054688 119.917969 79.238281 119.308594 77.355469 118.40625 C 75.507812 117.507812 73.507812 115.230469 71.574219 111.769531 C 71 110.75 70.523438 109.851562 70.523438 109.800781 C 70.523438 109.730469 70.726562 109.730469 71 109.765625 C 71.253906 109.816406 73.628906 110.003906 76.289062 110.191406 Z M 35.652344 113.363281 C 35.246094 113.398438 34.601562 113.398438 34.210938 113.363281 C 33.804688 113.332031 34.125 113.296875 34.921875 113.296875 C 35.71875 113.296875 36.042969 113.332031 35.652344 113.363281 Z M 182.804688 113.363281 C 182.398438 113.398438 181.753906 113.398438 181.363281 113.363281 C 180.957031 113.332031 181.28125 113.296875 182.078125 113.296875 C 182.875 113.296875 183.195312 113.332031 182.804688 113.363281 Z M 51.113281 113.941406 L 60.4375 114.316406 L 60.894531 114.839844 C 61.148438 115.128906 61.351562 115.402344 61.371094 115.46875 C 61.371094 115.519531 60.269531 115.417969 58.914062 115.25 C 55.640625 114.859375 49.808594 114.332031 44.925781 114.007812 C 42.738281 113.855469 39.90625 113.671875 38.652344 113.585938 L 36.363281 113.433594 L 39.078125 113.5 C 40.570312 113.535156 45.992188 113.722656 51.113281 113.941406 Z M 178.347656 113.601562 C 169.292969 114.164062 162.597656 114.707031 158.085938 115.25 C 156.730469 115.417969 155.628906 115.519531 155.628906 115.46875 C 155.648438 115.402344 155.851562 115.128906 156.105469 114.839844 L 156.5625 114.316406 L 166.308594 113.941406 C 171.667969 113.738281 176.175781 113.535156 176.3125 113.515625 C 176.449219 113.484375 177.480469 113.449219 178.601562 113.464844 L 180.636719 113.464844 Z M 68.152344 125.199219 C 81.476562 125.996094 87.816406 126.148438 108.5 126.148438 C 130.742188 126.148438 139.285156 125.894531 155.003906 124.824219 C 156.78125 124.707031 156.816406 124.707031 156.816406 125.0625 C 156.816406 125.402344 156.714844 125.417969 154.664062 125.519531 C 153.460938 125.589844 150.355469 125.757812 147.746094 125.894531 C 133.8125 126.625 129.082031 126.726562 108.414062 126.726562 C 87.714844 126.726562 83.730469 126.640625 69 125.878906 C 60.199219 125.4375 60.269531 125.4375 60.21875 125.046875 C 60.167969 124.707031 60.21875 124.707031 61.996094 124.824219 C 62.996094 124.894531 65.777344 125.0625 68.152344 125.199219 Z M 13.679688 128.117188 C 13.628906 128.167969 13.476562 128.1875 13.359375 128.136719 C 13.222656 128.085938 13.273438 128.035156 13.460938 128.035156 C 13.648438 128.015625 13.75 128.066406 13.679688 128.117188 Z M 203.726562 128.117188 C 203.675781 128.167969 203.523438 128.1875 203.402344 128.136719 C 203.269531 128.085938 203.320312 128.035156 203.503906 128.035156 C 203.691406 128.015625 203.792969 128.066406 203.726562 128.117188 Z M 22.921875 128.867188 C 40.027344 130.394531 44.316406 130.648438 50.691406 130.511719 C 55.691406 130.410156 58.421875 130.070312 60.777344 129.289062 C 61.539062 129.035156 60.25 129.882812 59.335938 130.242188 C 54.335938 132.160156 40.367188 131.597656 16.019531 128.476562 C 12.613281 128.035156 15.15625 128.1875 22.921875 128.867188 Z M 200.980469 128.476562 C 188.722656 130.039062 179.636719 130.921875 171.804688 131.257812 C 163.765625 131.617188 158.054688 130.988281 156.308594 129.527344 C 155.953125 129.238281 155.953125 129.1875 156.222656 129.289062 C 158.597656 130.089844 161.308594 130.410156 166.394531 130.511719 C 172.785156 130.648438 177.6875 130.34375 193.859375 128.867188 C 201.214844 128.203125 204.488281 128.015625 200.980469 128.476562 Z M 200.980469 128.476562" stroke-linecap="round" />
</g>
		<g transform="matrix(1 0 0 1 -89.41 1.33)" id="surface1"  >
<path style="stroke: none; stroke-width: 1; stroke-dasharray: none; stroke-linecap: butt; stroke-dashoffset: 0; stroke-linejoin: miter; stroke-miterlimit: 4; fill: rgb(0,0,0); fill-rule: nonzero; opacity: 1;"  transform=" translate(-19.59, -70.33)" d="M 12.648438 63.921875 C 11.035156 66.65625 10.953125 70.121094 12.410156 72.886719 C 14.78125 77.335938 20.359375 78.8125 24.515625 76.078125 C 25.058594 75.722656 25.75 75.164062 26.058594 74.859375 C 26.597656 74.261719 27.804688 72.394531 27.804688 72.105469 C 27.804688 72.023438 27.414062 72.3125 26.921875 72.753906 C 21.496094 77.640625 12.867188 73.515625 12.882812 66.046875 C 12.882812 65.351562 12.96875 64.433594 13.070312 64.023438 C 13.15625 63.617188 13.207031 63.261719 13.171875 63.210938 C 13.121094 63.175781 12.882812 63.5 12.648438 63.921875 Z M 12.648438 63.921875" stroke-linecap="round" />
</g>
		<g transform="matrix(1 0 0 1 -68.05 7.01)" id="surface1"  >
<path style="stroke: none; stroke-width: 1; stroke-dasharray: none; stroke-linecap: butt; stroke-dashoffset: 0; stroke-linejoin: miter; stroke-miterlimit: 4; fill: rgb(0,0,0); fill-rule: nonzero; opacity: 1;"  transform=" translate(-40.95, -76.01)" d="M 36.839844 73.109375 C 36.023438 74.910156 36.515625 77.386719 37.957031 78.644531 C 40.28125 80.699219 43.808594 80.085938 45.195312 77.402344 L 45.453125 76.910156 L 44.671875 77.488281 C 42.332031 79.289062 39.109375 78.507812 37.804688 75.84375 C 37.3125 74.824219 37.261719 74.601562 37.332031 73.449219 C 37.363281 72.734375 37.363281 72.15625 37.332031 72.15625 C 37.296875 72.15625 37.078125 72.582031 36.839844 73.109375 Z M 36.839844 73.109375" stroke-linecap="round" />
</g>
		<g transform="matrix(1 0 0 1 88.41 1.36)" id="surface1"  >
<path style="stroke: none; stroke-width: 1; stroke-dasharray: none; stroke-linecap: butt; stroke-dashoffset: 0; stroke-linejoin: miter; stroke-miterlimit: 4; fill: rgb(0,0,0); fill-rule: nonzero; opacity: 1;"  transform=" translate(-197.41, -70.36)" d="M 203.859375 63.5 C 204.148438 64.570312 204.148438 67.148438 203.859375 68.253906 C 202.859375 72.125 199.402344 74.875 195.554688 74.875 C 193.535156 74.875 191.300781 73.992188 189.910156 72.648438 C 189.519531 72.261719 189.195312 72.003906 189.195312 72.054688 C 189.195312 72.378906 190.113281 73.871094 190.738281 74.601562 C 193.503906 77.726562 198.265625 78.355469 201.726562 76.046875 C 203.046875 75.164062 203.980469 74.078125 204.710938 72.582031 C 205.792969 70.339844 205.929688 67.742188 205.082031 65.503906 C 204.625 64.296875 203.625 62.683594 203.859375 63.5 Z M 203.859375 63.5" stroke-linecap="round" />
</g>
		<g transform="matrix(1 0 0 1 67.06 7.01)" id="surface1"  >
<path style="stroke: none; stroke-width: 1; stroke-dasharray: none; stroke-linecap: butt; stroke-dashoffset: 0; stroke-linejoin: miter; stroke-miterlimit: 4; fill: rgb(0,0,0); fill-rule: nonzero; opacity: 1;"  transform=" translate(-176.06, -76.01)" d="M 179.667969 73.449219 C 179.738281 74.601562 179.6875 74.824219 179.195312 75.84375 C 178.378906 77.488281 176.972656 78.40625 175.210938 78.421875 C 174.023438 78.441406 173.226562 78.183594 172.328125 77.488281 L 171.546875 76.910156 L 171.804688 77.402344 C 172.582031 78.914062 174.160156 79.867188 175.871094 79.867188 C 177.738281 79.847656 179.175781 78.949219 180.023438 77.21875 C 180.71875 75.84375 180.753906 74.382812 180.125 73.039062 C 179.90625 72.566406 179.703125 72.15625 179.667969 72.15625 C 179.636719 72.15625 179.636719 72.734375 179.667969 73.449219 Z M 179.667969 73.449219" stroke-linecap="round" />
</g>
		<g transform="matrix(1 0 0 1 -44.68 1.53)" id="surface1"  >
<path style="stroke: none; stroke-width: 1; stroke-dasharray: none; stroke-linecap: butt; stroke-dashoffset: 0; stroke-linejoin: miter; stroke-miterlimit: 4; fill: rgb(0,0,0); fill-rule: nonzero; opacity: 1;"  transform=" translate(-64.32, -70.53)" d="M 62.792969 64.804688 C 62.640625 65.621094 62.828125 68.472656 63.167969 70.375 C 63.523438 72.414062 64.285156 74.753906 64.964844 75.875 C 65.695312 77.097656 66 77.199219 65.878906 76.214844 C 65.828125 75.808594 65.660156 73.246094 65.523438 70.546875 C 65.371094 67.828125 65.21875 65.296875 65.167969 64.890625 L 65.082031 64.179688 L 62.914062 64.179688 Z M 62.792969 64.804688" stroke-linecap="round" />
</g>
		<g transform="matrix(1 0 0 1 -41.46 2.63)" id="surface1"  >
<path style="stroke: none; stroke-width: 1; stroke-dasharray: none; stroke-linecap: butt; stroke-dashoffset: 0; stroke-linejoin: miter; stroke-miterlimit: 4; fill: rgb(0,0,0); fill-rule: nonzero; opacity: 1;"  transform=" translate(-67.54, -71.63)" d="M 65.949219 64.804688 C 65.949219 65.636719 66.644531 77.335938 66.710938 77.539062 C 66.796875 77.777344 68.980469 79.015625 69.117188 78.898438 C 69.238281 78.761719 68.40625 64.789062 68.253906 64.535156 C 68.183594 64.433594 67.675781 64.347656 67.03125 64.347656 C 65.964844 64.347656 65.949219 64.347656 65.949219 64.804688 Z M 65.949219 64.804688" stroke-linecap="round" />
</g>
		<g transform="matrix(1 0 0 1 -38.23 3.38)" id="surface1"  >
<path style="stroke: none; stroke-width: 1; stroke-dasharray: none; stroke-linecap: butt; stroke-dashoffset: 0; stroke-linejoin: miter; stroke-miterlimit: 4; fill: rgb(0,0,0); fill-rule: nonzero; opacity: 1;"  transform=" translate(-70.77, -72.38)" d="M 69.167969 65.316406 C 69.1875 67.300781 70 79.339844 70.136719 79.457031 C 70.355469 79.664062 72.253906 80.324219 72.355469 80.222656 C 72.507812 80.085938 71.660156 64.960938 71.492188 64.722656 C 71.390625 64.601562 70.914062 64.519531 70.253906 64.519531 L 69.167969 64.519531 Z M 69.167969 65.316406" stroke-linecap="round" />
</g>
		<g transform="matrix(1 0 0 1 -34.96 3.94)" id="surface1"  >
<path style="stroke: none; stroke-width: 1; stroke-dasharray: none; stroke-linecap: butt; stroke-dashoffset: 0; stroke-linejoin: miter; stroke-miterlimit: 4; fill: rgb(0,0,0); fill-rule: nonzero; opacity: 1;"  transform=" translate(-74.04, -72.94)" d="M 72.390625 65.144531 C 72.390625 65.84375 73.050781 77.980469 73.167969 79.40625 L 73.269531 80.648438 L 73.882812 80.816406 C 74.222656 80.917969 74.78125 81.039062 75.101562 81.089844 L 75.695312 81.191406 L 75.304688 73.144531 C 75.085938 68.726562 74.882812 65.011719 74.847656 64.890625 C 74.796875 64.753906 74.390625 64.6875 73.578125 64.6875 C 72.390625 64.6875 72.390625 64.6875 72.390625 65.144531 Z M 72.390625 65.144531" stroke-linecap="round" />
</g>
		<g transform="matrix(1 0 0 1 -31.73 4.32)" id="surface1"  >
<path style="stroke: none; stroke-width: 1; stroke-dasharray: none; stroke-linecap: butt; stroke-dashoffset: 0; stroke-linejoin: miter; stroke-miterlimit: 4; fill: rgb(0,0,0); fill-rule: nonzero; opacity: 1;"  transform=" translate(-77.27, -73.32)" d="M 75.609375 64.976562 C 75.609375 65.0625 75.796875 68.746094 76.035156 73.175781 C 76.273438 77.609375 76.457031 81.292969 76.457031 81.34375 C 76.457031 81.460938 78.847656 81.886719 78.933594 81.785156 C 79.019531 81.714844 78.171875 65.332031 78.070312 65.0625 C 77.984375 64.839844 75.609375 64.753906 75.609375 64.976562 Z M 75.609375 64.976562" stroke-linecap="round" />
</g>
		<g transform="matrix(1 0 0 1 -5.37 4.28)" id="surface1"  >
<path style="stroke: none; stroke-width: 1; stroke-dasharray: none; stroke-linecap: butt; stroke-dashoffset: 0; stroke-linejoin: miter; stroke-miterlimit: 4; fill: rgb(0,0,0); fill-rule: nonzero; opacity: 1;"  transform=" translate(-103.63, -73.28)" d="M 102.835938 64.976562 L 102.175781 65.042969 L 102.277344 67.285156 C 102.449219 71.632812 102.957031 81.582031 103.007812 81.648438 C 103.042969 81.683594 103.175781 81.613281 103.3125 81.511719 C 103.753906 81.15625 104.246094 79.867188 104.601562 78.152344 C 105.261719 75.011719 105.246094 68.101562 104.550781 65.6875 C 104.3125 64.875 104.195312 64.824219 102.835938 64.976562 Z M 102.835938 64.976562" stroke-linecap="round" />
</g>
		<g transform="matrix(1 0 0 1 -28.42 4.62)" id="surface1"  >
<path style="stroke: none; stroke-width: 1; stroke-dasharray: none; stroke-linecap: butt; stroke-dashoffset: 0; stroke-linejoin: miter; stroke-miterlimit: 4; fill: rgb(0,0,0); fill-rule: nonzero; opacity: 1;"  transform=" translate(-80.58, -73.62)" d="M 78.917969 65.65625 C 78.949219 66.011719 79.152344 69.78125 79.359375 74.027344 C 79.5625 78.269531 79.78125 81.820312 79.847656 81.886719 C 79.917969 81.953125 80.492188 82.074219 81.136719 82.125 L 82.324219 82.226562 L 82.257812 80.886719 C 82.222656 80.136719 82.019531 76.300781 81.816406 72.328125 L 81.460938 65.113281 L 80.136719 65.0625 L 78.832031 65.011719 Z M 78.917969 65.65625" stroke-linecap="round" />
</g>
		<g transform="matrix(1 0 0 1 -25.11 4.8)" id="surface1"  >
<path style="stroke: none; stroke-width: 1; stroke-dasharray: none; stroke-linecap: butt; stroke-dashoffset: 0; stroke-linejoin: miter; stroke-miterlimit: 4; fill: rgb(0,0,0); fill-rule: nonzero; opacity: 1;"  transform=" translate(-83.89, -73.8)" d="M 82.289062 66.675781 C 82.339844 67.589844 82.5625 71.460938 82.75 75.300781 C 82.933594 79.117188 83.121094 82.277344 83.121094 82.292969 C 83.136719 82.3125 83.714844 82.378906 84.394531 82.429688 L 85.613281 82.566406 L 85.613281 81.902344 C 85.613281 80.886719 84.78125 65.332031 84.730469 65.28125 C 84.699219 65.265625 84.121094 65.195312 83.425781 65.128906 L 82.171875 65.027344 Z M 82.289062 66.675781" stroke-linecap="round" />
</g>
		<g transform="matrix(1 0 0 1 -8.52 4.64)" id="surface1"  >
<path style="stroke: none; stroke-width: 1; stroke-dasharray: none; stroke-linecap: butt; stroke-dashoffset: 0; stroke-linejoin: miter; stroke-miterlimit: 4; fill: rgb(0,0,0); fill-rule: nonzero; opacity: 1;"  transform=" translate(-100.48, -73.64)" d="M 99.734375 65.144531 C 99.175781 65.195312 98.835938 65.296875 98.835938 65.417969 C 98.835938 65.535156 99.023438 69.253906 99.261719 73.6875 C 99.496094 78.117188 99.683594 81.871094 99.683594 82.003906 C 99.683594 82.226562 99.886719 82.261719 100.835938 82.210938 C 101.464844 82.175781 102.039062 82.089844 102.109375 82.003906 C 102.175781 81.9375 102.058594 78.132812 101.820312 73.566406 C 101.582031 69 101.378906 65.195312 101.378906 65.144531 C 101.378906 65.078125 101.210938 65.042969 101.007812 65.0625 C 100.785156 65.078125 100.210938 65.113281 99.734375 65.144531 Z M 99.734375 65.144531" stroke-linecap="round" />
</g>
		<g transform="matrix(1 0 0 1 -21.74 4.89)" id="surface1"  >
<path style="stroke: none; stroke-width: 1; stroke-dasharray: none; stroke-linecap: butt; stroke-dashoffset: 0; stroke-linejoin: miter; stroke-miterlimit: 4; fill: rgb(0,0,0); fill-rule: nonzero; opacity: 1;"  transform=" translate(-87.26, -73.89)" d="M 85.613281 66.078125 C 85.628906 67.421875 86.425781 82.363281 86.496094 82.414062 C 86.648438 82.546875 88.835938 82.652344 88.902344 82.53125 C 88.988281 82.394531 88.171875 65.757812 88.070312 65.402344 C 88.019531 65.265625 87.613281 65.195312 86.800781 65.195312 L 85.613281 65.195312 Z M 85.613281 66.078125" stroke-linecap="round" />
</g>
		<g transform="matrix(1 0 0 1 -18.37 4.9)" id="surface1"  >
<path style="stroke: none; stroke-width: 1; stroke-dasharray: none; stroke-linecap: butt; stroke-dashoffset: 0; stroke-linejoin: miter; stroke-miterlimit: 4; fill: rgb(0,0,0); fill-rule: nonzero; opacity: 1;"  transform=" translate(-90.63, -73.9)" d="M 88.953125 65.316406 C 88.886719 65.417969 89.273438 73.515625 89.714844 81.664062 L 89.765625 82.601562 L 92.308594 82.601562 L 92.257812 81.921875 C 92.242188 81.546875 92.074219 78.03125 91.886719 74.109375 C 91.699219 70.1875 91.496094 66.570312 91.445312 66.078125 L 91.359375 65.195312 L 90.191406 65.195312 C 89.546875 65.195312 88.988281 65.246094 88.953125 65.316406 Z M 88.953125 65.316406" stroke-linecap="round" />
</g>
		<g transform="matrix(1 0 0 1 -15.08 4.86)" id="surface1"  >
<path style="stroke: none; stroke-width: 1; stroke-dasharray: none; stroke-linecap: butt; stroke-dashoffset: 0; stroke-linejoin: miter; stroke-miterlimit: 4; fill: rgb(0,0,0); fill-rule: nonzero; opacity: 1;"  transform=" translate(-93.92, -73.86)" d="M 92.226562 65.65625 C 92.226562 65.925781 92.410156 69.765625 92.648438 74.195312 C 92.886719 78.625 93.074219 82.3125 93.074219 82.378906 C 93.074219 82.464844 93.648438 82.515625 94.34375 82.515625 C 95.207031 82.515625 95.617188 82.445312 95.617188 82.3125 C 95.617188 81.394531 94.75 65.570312 94.683594 65.402344 C 94.632812 65.265625 94.207031 65.195312 93.410156 65.195312 C 92.226562 65.195312 92.226562 65.195312 92.226562 65.65625 Z M 92.226562 65.65625" stroke-linecap="round" />
</g>
		<g transform="matrix(1 0 0 1 -11.75 4.84)" id="surface1"  >
<path style="stroke: none; stroke-width: 1; stroke-dasharray: none; stroke-linecap: butt; stroke-dashoffset: 0; stroke-linejoin: miter; stroke-miterlimit: 4; fill: rgb(0,0,0); fill-rule: nonzero; opacity: 1;"  transform=" translate(-97.25, -73.84)" d="M 95.582031 65.316406 C 95.480469 65.519531 96.363281 82.292969 96.480469 82.414062 C 96.53125 82.480469 97.109375 82.480469 97.75 82.414062 L 98.921875 82.3125 L 98.871094 81.003906 C 98.835938 80.289062 98.632812 76.46875 98.429688 72.496094 L 98.074219 65.28125 L 96.851562 65.230469 C 96.191406 65.195312 95.617188 65.246094 95.582031 65.316406 Z M 95.582031 65.316406" stroke-linecap="round" />
</g>
		<g transform="matrix(1 0 0 1 43.68 1.53)" id="surface1"  >
<path style="stroke: none; stroke-width: 1; stroke-dasharray: none; stroke-linecap: butt; stroke-dashoffset: 0; stroke-linejoin: miter; stroke-miterlimit: 4; fill: rgb(0,0,0); fill-rule: nonzero; opacity: 1;"  transform=" translate(-152.68, -70.53)" d="M 151.832031 64.722656 C 151.78125 65.027344 151.628906 67.574219 151.476562 70.375 C 151.339844 73.175781 151.171875 75.808594 151.121094 76.214844 C 151 77.199219 151.304688 77.097656 152.035156 75.875 C 152.714844 74.753906 153.476562 72.414062 153.832031 70.375 C 154.171875 68.472656 154.359375 65.621094 154.207031 64.804688 L 154.085938 64.179688 L 151.917969 64.179688 Z M 151.832031 64.722656" stroke-linecap="round" />
</g>
		<g transform="matrix(1 0 0 1 40.46 2.63)" id="surface1"  >
<path style="stroke: none; stroke-width: 1; stroke-dasharray: none; stroke-linecap: butt; stroke-dashoffset: 0; stroke-linejoin: miter; stroke-miterlimit: 4; fill: rgb(0,0,0); fill-rule: nonzero; opacity: 1;"  transform=" translate(-149.46, -71.63)" d="M 148.746094 64.535156 C 148.59375 64.789062 147.761719 78.761719 147.882812 78.898438 C 148.019531 79.015625 150.203125 77.777344 150.289062 77.539062 C 150.339844 77.351562 151.070312 65.296875 151.050781 64.636719 C 151.050781 64.398438 150.882812 64.347656 149.96875 64.347656 C 149.324219 64.347656 148.816406 64.433594 148.746094 64.535156 Z M 148.746094 64.535156" stroke-linecap="round" />
</g>
		<g transform="matrix(1 0 0 1 37.23 3.38)" id="surface1"  >
<path style="stroke: none; stroke-width: 1; stroke-dasharray: none; stroke-linecap: butt; stroke-dashoffset: 0; stroke-linejoin: miter; stroke-miterlimit: 4; fill: rgb(0,0,0); fill-rule: nonzero; opacity: 1;"  transform=" translate(-146.23, -72.38)" d="M 145.507812 64.636719 C 145.375 64.6875 145.289062 65.011719 145.289062 65.417969 C 145.289062 65.808594 145.136719 69.273438 144.914062 73.125 C 144.710938 76.980469 144.59375 80.171875 144.644531 80.222656 C 144.746094 80.324219 146.628906 79.679688 146.863281 79.457031 C 147 79.339844 147.8125 67.183594 147.832031 65.230469 L 147.832031 64.519531 L 146.78125 64.535156 C 146.1875 64.535156 145.609375 64.585938 145.507812 64.636719 Z M 145.507812 64.636719" stroke-linecap="round" />
</g>
		<g transform="matrix(1 0 0 1 33.97 3.92)" id="surface1"  >
<path style="stroke: none; stroke-width: 1; stroke-dasharray: none; stroke-linecap: butt; stroke-dashoffset: 0; stroke-linejoin: miter; stroke-miterlimit: 4; fill: rgb(0,0,0); fill-rule: nonzero; opacity: 1;"  transform=" translate(-142.97, -72.92)" d="M 142.152344 64.890625 C 142.066406 65.164062 141.269531 81.054688 141.339844 81.140625 C 141.390625 81.222656 143.320312 80.816406 143.574219 80.664062 C 143.710938 80.578125 143.898438 78.117188 144.1875 73.074219 C 144.421875 68.984375 144.609375 65.417969 144.609375 65.144531 C 144.609375 64.6875 144.609375 64.6875 143.421875 64.6875 C 142.609375 64.6875 142.203125 64.753906 142.152344 64.890625 Z M 142.152344 64.890625" stroke-linecap="round" />
</g>
		<g transform="matrix(1 0 0 1 4.36 4.28)" id="surface1"  >
<path style="stroke: none; stroke-width: 1; stroke-dasharray: none; stroke-linecap: butt; stroke-dashoffset: 0; stroke-linejoin: miter; stroke-miterlimit: 4; fill: rgb(0,0,0); fill-rule: nonzero; opacity: 1;"  transform=" translate(-113.36, -73.28)" d="M 112.601562 65.144531 C 111.976562 66.367188 111.703125 74.128906 112.195312 77.234375 C 112.570312 79.558594 113.398438 81.664062 113.957031 81.664062 C 114.027344 81.664062 114.09375 81.070312 114.09375 80.339844 C 114.09375 79.628906 114.164062 77.929688 114.246094 76.574219 C 114.535156 72.105469 114.839844 65.195312 114.753906 65.128906 C 114.722656 65.09375 114.246094 65.011719 113.722656 64.960938 C 112.890625 64.855469 112.738281 64.875 112.601562 65.144531 Z M 112.601562 65.144531" stroke-linecap="round" />
</g>
		<g transform="matrix(1 0 0 1 30.73 4.32)" id="surface1"  >
<path style="stroke: none; stroke-width: 1; stroke-dasharray: none; stroke-linecap: butt; stroke-dashoffset: 0; stroke-linejoin: miter; stroke-miterlimit: 4; fill: rgb(0,0,0); fill-rule: nonzero; opacity: 1;"  transform=" translate(-139.73, -73.32)" d="M 138.929688 65.0625 C 138.828125 65.351562 137.980469 81.699219 138.066406 81.785156 C 138.101562 81.820312 138.660156 81.75 139.335938 81.648438 C 140.234375 81.496094 140.542969 81.378906 140.542969 81.171875 C 140.542969 81.019531 140.726562 77.386719 140.964844 73.089844 C 141.203125 68.796875 141.390625 65.179688 141.390625 65.0625 C 141.390625 64.925781 141.03125 64.855469 140.203125 64.855469 C 139.40625 64.855469 138.980469 64.925781 138.929688 65.0625 Z M 138.929688 65.0625" stroke-linecap="round" />
</g>
		<g transform="matrix(1 0 0 1 7.46 4.65)" id="surface1"  >
<path style="stroke: none; stroke-width: 1; stroke-dasharray: none; stroke-linecap: butt; stroke-dashoffset: 0; stroke-linejoin: miter; stroke-miterlimit: 4; fill: rgb(0,0,0); fill-rule: nonzero; opacity: 1;"  transform=" translate(-116.46, -73.65)" d="M 115.550781 66.519531 C 115.347656 69.339844 114.738281 82.023438 114.789062 82.089844 C 114.824219 82.105469 115.398438 82.175781 116.0625 82.210938 L 117.28125 82.277344 L 117.382812 80.308594 C 117.789062 72.855469 118.164062 65.316406 118.128906 65.28125 C 118.09375 65.265625 117.535156 65.195312 116.875 65.128906 L 115.652344 65.027344 Z M 115.550781 66.519531" stroke-linecap="round" />
</g>
		<g transform="matrix(1 0 0 1 24.11 4.8)" id="surface1"  >
<path style="stroke: none; stroke-width: 1; stroke-dasharray: none; stroke-linecap: butt; stroke-dashoffset: 0; stroke-linejoin: miter; stroke-miterlimit: 4; fill: rgb(0,0,0); fill-rule: nonzero; opacity: 1;"  transform=" translate(-133.11, -73.8)" d="M 133.132812 65.144531 L 132.269531 65.214844 L 132.167969 66.4375 C 132.03125 67.980469 131.386719 81.003906 131.386719 81.902344 L 131.386719 82.566406 L 132.625 82.429688 C 133.285156 82.378906 133.863281 82.3125 133.863281 82.292969 C 133.878906 82.277344 134.066406 79.050781 134.25 75.128906 C 134.457031 71.207031 134.660156 67.335938 134.726562 66.503906 L 134.828125 65.027344 L 134.421875 65.0625 C 134.199219 65.078125 133.625 65.113281 133.132812 65.144531 Z M 133.132812 65.144531" stroke-linecap="round" />
</g>
		<g transform="matrix(1 0 0 1 27.4 4.63)" id="surface1"  >
<path style="stroke: none; stroke-width: 1; stroke-dasharray: none; stroke-linecap: butt; stroke-dashoffset: 0; stroke-linejoin: miter; stroke-miterlimit: 4; fill: rgb(0,0,0); fill-rule: nonzero; opacity: 1;"  transform=" translate(-136.4, -73.63)" d="M 135.558594 65.230469 C 135.523438 65.351562 135.320312 68.933594 135.132812 73.175781 C 134.929688 77.421875 134.726562 81.207031 134.675781 81.5625 L 134.589844 82.226562 L 135.8125 82.125 C 136.488281 82.074219 137.082031 81.953125 137.152344 81.886719 C 137.21875 81.820312 137.4375 78.203125 137.640625 73.855469 C 137.847656 69.507812 138.050781 65.757812 138.101562 65.484375 L 138.203125 65.027344 L 136.898438 65.027344 C 136.015625 65.027344 135.589844 65.09375 135.558594 65.230469 Z M 135.558594 65.230469" stroke-linecap="round" />
</g>
		<g transform="matrix(1 0 0 1 10.7 4.82)" id="surface1"  >
<path style="stroke: none; stroke-width: 1; stroke-dasharray: none; stroke-linecap: butt; stroke-dashoffset: 0; stroke-linejoin: miter; stroke-miterlimit: 4; fill: rgb(0,0,0); fill-rule: nonzero; opacity: 1;"  transform=" translate(-119.7, -73.82)" d="M 118.941406 65.402344 C 118.910156 65.519531 118.707031 69.101562 118.519531 73.347656 C 118.316406 77.589844 118.113281 81.34375 118.078125 81.683594 L 117.992188 82.292969 L 119.214844 82.394531 C 119.890625 82.445312 120.46875 82.464844 120.519531 82.414062 C 120.585938 82.34375 120.894531 77.066406 121.332031 68.117188 C 121.402344 66.589844 121.433594 65.296875 121.402344 65.265625 C 121.367188 65.230469 120.808594 65.195312 120.164062 65.195312 C 119.382812 65.195312 118.976562 65.265625 118.941406 65.402344 Z M 118.941406 65.402344" stroke-linecap="round" />
</g>
		<g transform="matrix(1 0 0 1 14.1 4.86)" id="surface1"  >
<path style="stroke: none; stroke-width: 1; stroke-dasharray: none; stroke-linecap: butt; stroke-dashoffset: 0; stroke-linejoin: miter; stroke-miterlimit: 4; fill: rgb(0,0,0); fill-rule: nonzero; opacity: 1;"  transform=" translate(-123.1, -73.86)" d="M 122.332031 65.351562 C 122.265625 65.453125 121.382812 81.089844 121.382812 82.226562 C 121.382812 82.464844 121.570312 82.515625 122.65625 82.515625 C 123.605469 82.515625 123.925781 82.464844 123.925781 82.292969 C 123.925781 82.089844 124.351562 73.992188 124.707031 67.269531 L 124.808594 65.195312 L 123.621094 65.195312 C 122.960938 65.195312 122.382812 65.265625 122.332031 65.351562 Z M 122.332031 65.351562" stroke-linecap="round" />
</g>
		<g transform="matrix(1 0 0 1 17.38 4.9)" id="surface1"  >
<path style="stroke: none; stroke-width: 1; stroke-dasharray: none; stroke-linecap: butt; stroke-dashoffset: 0; stroke-linejoin: miter; stroke-miterlimit: 4; fill: rgb(0,0,0); fill-rule: nonzero; opacity: 1;"  transform=" translate(-126.38, -73.9)" d="M 125.554688 65.910156 C 125.503906 66.316406 125.300781 69.917969 125.113281 73.941406 C 124.925781 77.949219 124.757812 81.546875 124.742188 81.921875 L 124.691406 82.601562 L 127.234375 82.601562 L 127.4375 78.523438 C 127.554688 76.285156 127.757812 72.429688 127.894531 69.949219 C 128.03125 67.472656 128.097656 65.402344 128.046875 65.316406 C 128.011719 65.246094 127.453125 65.195312 126.808594 65.195312 L 125.640625 65.195312 Z M 125.554688 65.910156" stroke-linecap="round" />
</g>
		<g transform="matrix(1 0 0 1 20.75 4.9)" id="surface1"  >
<path style="stroke: none; stroke-width: 1; stroke-dasharray: none; stroke-linecap: butt; stroke-dashoffset: 0; stroke-linejoin: miter; stroke-miterlimit: 4; fill: rgb(0,0,0); fill-rule: nonzero; opacity: 1;"  transform=" translate(-129.75, -73.9)" d="M 128.84375 65.738281 C 128.84375 66.046875 128.65625 69.933594 128.421875 74.363281 C 128.183594 78.796875 128.0625 82.464844 128.132812 82.53125 C 128.199219 82.601562 128.757812 82.617188 129.386719 82.566406 L 130.523438 82.464844 L 130.605469 81.257812 C 130.742188 79.644531 131.386719 66.828125 131.386719 65.910156 L 131.386719 65.195312 L 128.84375 65.195312 Z M 128.84375 65.738281" stroke-linecap="round" />
</g>
</g>
</g>
<g transform="matrix(1 0 0 1 41.5 136)"  >
<path style="stroke: rgb(188,50,50); stroke-width: 1; stroke-dasharray: none; stroke-linecap: round; stroke-dashoffset: 0; stroke-linejoin: round; stroke-miterlimit: 10; fill: none; fill-rule: nonzero; opacity: 1;"  transform=" translate(-41.5, -136)" d="M 41.499 136 L 41.501 136" stroke-linecap="round" />
</g>
</svg>